<?xml version="1.0" encoding="UTF-8"?>
<svg version="1.1" xmlns="http://www.w3.org/2000/svg" width="984" height="984">
<path d="M0 0 C3.98252956 3.69782126 7.87243939 7.4818011 11.73376465 11.30563354 C12.54883484 12.11263199 13.36390503 12.91963043 14.20367432 13.75108337 C15.90915966 15.44286031 17.61318735 17.13610791 19.3157959 18.83078003 C21.04507382 20.54848379 22.77882334 22.26169728 24.51696777 23.97042847 C27.05753061 26.46815401 29.58442474 28.97902524 32.10876465 31.49313354 C32.87763 32.24449081 33.64649536 32.99584808 34.43865967 33.76997375 C43.21755359 42.58414404 49.06304781 51.89633279 49.09313965 64.59078979 C48.96777888 87.44823699 28.38520027 101.89740865 13.42150879 116.90866089 C11.98170478 118.35521009 10.54227677 119.80213265 9.10290153 121.24910848 C2.84750022 127.53750932 -3.41352148 133.8202974 -9.67622003 140.10142988 C-11.30827317 141.73829362 -12.94024086 143.3752425 -14.57219243 145.01220751 C-24.73640236 155.20736379 -34.90276646 165.40036899 -45.07404232 175.58847618 C-47.41930525 177.93768753 -49.76454076 180.28692624 -52.10974121 182.63619995 C-52.69251469 183.2199818 -53.27528818 183.80376364 -53.87572146 184.40523584 C-63.33065392 193.87720154 -72.77345822 203.36116531 -82.21148818 212.84996991 C-91.92781382 222.61813269 -101.65549278 232.37487515 -111.39414698 242.12077773 C-116.85145251 247.58273326 -122.30366261 253.04956971 -127.74302483 258.52939987 C-132.37031939 263.19108365 -137.00777523 267.84235264 -141.65860765 272.48055856 C-144.02736554 274.84351364 -146.38924447 277.21238039 -148.74160385 279.5917244 C-151.30015976 282.17804642 -153.87675305 284.7450038 -156.45848083 287.3081665 C-157.18643118 288.05291178 -157.91438153 288.79765706 -158.66439098 289.56497037 C-167.28218129 298.0295887 -177.20820228 302.79081763 -189.29968262 302.85079956 C-204.06604546 302.52461722 -213.07900512 292.88193928 -222.90686035 283.07125854 C-223.58361816 282.39782913 -224.26037598 281.72439972 -224.9576416 281.03056335 C-226.37056219 279.62266116 -227.78217226 278.21344262 -229.19250488 276.802948 C-231.36142546 274.63624212 -233.53825943 272.47769328 -235.7154541 270.31930542 C-237.09224384 268.94544498 -238.46856347 267.57111324 -239.84436035 266.19625854 C-240.49735107 265.55045334 -241.1503418 264.90464813 -241.82312012 264.23927307 C-242.41794189 263.64137466 -243.01276367 263.04347626 -243.62561035 262.42745972 C-244.15219238 261.9023027 -244.67877441 261.37714569 -245.22131348 260.83607483 C-246.34436035 259.46578979 -246.34436035 259.46578979 -246.34436035 257.46578979 C-247.00436035 257.46578979 -247.66436035 257.46578979 -248.34436035 257.46578979 C-248.34436035 256.80578979 -248.34436035 256.14578979 -248.34436035 255.46578979 C-249.30342285 255.06360229 -249.30342285 255.06360229 -250.28186035 254.65328979 C-252.34436035 253.46578979 -252.34436035 253.46578979 -253.34436035 250.46578979 C-254.00436035 250.46578979 -254.66436035 250.46578979 -255.34436035 250.46578979 C-255.34436035 249.80578979 -255.34436035 249.14578979 -255.34436035 248.46578979 C-256.00436035 248.46578979 -256.66436035 248.46578979 -257.34436035 248.46578979 C-257.34436035 247.80578979 -257.34436035 247.14578979 -257.34436035 246.46578979 C-258.30342285 246.06360229 -258.30342285 246.06360229 -259.28186035 245.65328979 C-261.34436035 244.46578979 -261.34436035 244.46578979 -262.34436035 241.46578979 C-263.00436035 241.46578979 -263.66436035 241.46578979 -264.34436035 241.46578979 C-264.34436035 240.80578979 -264.34436035 240.14578979 -264.34436035 239.46578979 C-265.30342285 239.06360229 -265.30342285 239.06360229 -266.28186035 238.65328979 C-268.34436035 237.46578979 -268.34436035 237.46578979 -269.34436035 234.46578979 C-270.00436035 234.46578979 -270.66436035 234.46578979 -271.34436035 234.46578979 C-271.34436035 233.80578979 -271.34436035 233.14578979 -271.34436035 232.46578979 C-272.00436035 232.46578979 -272.66436035 232.46578979 -273.34436035 232.46578979 C-273.34436035 231.80578979 -273.34436035 231.14578979 -273.34436035 230.46578979 C-274.33436035 230.13578979 -275.32436035 229.80578979 -276.34436035 229.46578979 C-276.34436035 228.80578979 -276.34436035 228.14578979 -276.34436035 227.46578979 C-277.00436035 227.46578979 -277.66436035 227.46578979 -278.34436035 227.46578979 C-278.34436035 226.80578979 -278.34436035 226.14578979 -278.34436035 225.46578979 C-279.00436035 225.46578979 -279.66436035 225.46578979 -280.34436035 225.46578979 C-281.75808716 224.03700256 -281.75808716 224.03700256 -283.41320801 222.03683472 C-287.48401481 217.25334467 -291.82348517 212.78977405 -296.24279785 208.32907104 C-297.07719391 207.48660324 -297.91158997 206.64413544 -298.77127075 205.77613831 C-300.52625559 204.00740597 -302.28273894 202.24015934 -304.04064941 200.47433472 C-305.82736894 198.6760533 -307.60960197 196.87330314 -309.3873291 195.06613159 C-311.97517705 192.43551917 -314.57611029 189.81849749 -317.18029785 187.20407104 C-317.96496429 186.40189651 -318.74963074 185.59972198 -319.55807495 184.77323914 C-330.78225348 173.59240786 -343.74038303 169.01461741 -359.5435791 169.03219604 C-360.46783691 169.17528198 -361.39209473 169.31836792 -362.34436035 169.46578979 C-364.81152299 173.16653375 -364.59635935 174.9951157 -364.60048676 179.41479874 C-364.60558206 180.48705578 -364.60558206 180.48705578 -364.6107803 181.58097458 C-364.61979903 183.99482521 -364.61450236 186.40843704 -364.609375 188.82229614 C-364.61294328 190.56311224 -364.61739282 192.30392672 -364.62265158 194.04473853 C-364.63461503 198.84328744 -364.63412837 203.64176832 -364.63171649 208.4403286 C-364.63129819 213.61035682 -364.6423843 218.78036125 -364.6521759 223.95037842 C-364.66765606 232.91611091 -364.67604611 241.88182763 -364.67988586 250.84757233 C-364.68562838 263.82697195 -364.70420839 276.80632915 -364.72632641 289.78571007 C-364.76207943 310.86395887 -364.79037536 331.94221008 -364.81262207 353.02047729 C-364.81395706 354.2828668 -364.81529205 355.5452563 -364.8166675 356.84590003 C-364.8260913 365.80252976 -364.83525221 374.75915974 -364.84436035 383.71578979 C-364.8547498 393.92607646 -364.86526993 404.13636296 -364.87609863 414.34664917 C-364.87742938 415.60386608 -364.87876012 416.86108298 -364.88013119 418.15639737 C-364.90258314 439.13977719 -364.93279271 460.12313903 -364.96849108 481.10650039 C-364.99012923 494.04686062 -365.00476925 506.98719287 -365.01032984 519.92757019 C-365.01458636 528.80432732 -365.02584871 537.68105784 -365.04255378 546.5578002 C-365.05193266 551.67551626 -365.05808283 556.79318259 -365.05549049 561.91090775 C-365.05316418 566.60428724 -365.06008302 571.2975626 -365.07406932 575.99092099 C-365.07750603 577.68085471 -365.07764864 579.37079936 -365.07399672 581.06073263 C-365.01417215 611.76419075 -372.03743566 637.39819504 -393.53186035 660.15328979 C-409.38564292 675.45582819 -428.86086912 682.84746226 -450.74182129 682.76876831 C-467.22429526 682.43574253 -482.30598311 677.58740151 -495.34436035 667.46578979 C-496.51805176 666.61307495 -496.51805176 666.61307495 -497.7154541 665.74313354 C-516.17403903 652.07817776 -527.29663531 629.71538667 -531.34436035 607.46578979 C-532.61720951 598.72745649 -532.49469697 589.99484618 -532.49584961 581.18638611 C-532.4997032 579.41875327 -532.50399132 577.65112134 -532.5086751 575.8834905 C-532.52027694 571.03921446 -532.52579014 566.1949478 -532.53030992 561.35066068 C-532.53627322 556.12168589 -532.54793709 550.8927235 -532.5589447 545.66375732 C-532.57727284 536.6080718 -532.59212662 527.55238598 -532.60472107 518.49669075 C-532.62302549 505.40153964 -532.6476889 492.30640631 -532.67409497 479.21126931 C-532.71686419 457.96172392 -532.75598745 436.71217365 -532.79211426 415.46261597 C-532.79427706 414.19123759 -532.79643986 412.91985922 -532.79866821 411.60995423 C-532.81619597 401.2900109 -532.83354578 390.97006727 -532.85087109 380.6501236 C-532.86603712 371.61887092 -532.88126855 362.58761835 -532.89660645 353.55636597 C-532.89876531 352.28441417 -532.90092418 351.01246238 -532.90314847 349.70196659 C-532.93921552 328.52297244 -532.97916134 307.34398732 -533.02190924 286.16500562 C-533.04810046 273.09523674 -533.07075085 260.02547064 -533.08889282 246.95568805 C-533.10152909 238.01134241 -533.11764349 229.06700751 -533.13654196 220.12267292 C-533.14733117 214.95590737 -533.15643855 209.78915228 -533.16123772 204.6223774 C-533.16564949 199.89972032 -533.17456795 195.17709477 -533.18718094 190.45445269 C-533.19093714 188.73935719 -533.1929789 187.02425697 -533.19320112 185.30915738 C-533.1937372 182.99118845 -533.20030902 180.67331553 -533.20848846 178.35536289 C-533.21166242 176.41813306 -533.21166242 176.41813306 -533.21490049 174.44176728 C-533.13853108 171.53751602 -533.13853108 171.53751602 -534.34436035 169.46578979 C-535.84516521 169.46358995 -535.84516521 169.46358995 -537.37628937 169.46134567 C-561.77500847 169.42467337 -586.17359111 169.36512277 -610.57219696 169.28188705 C-622.37141636 169.24215813 -634.17056966 169.20973446 -645.96984863 169.1947937 C-656.2597925 169.18174528 -666.54959055 169.15469944 -676.83945227 169.11117673 C-682.28270525 169.08863359 -687.72577884 169.07287481 -693.16908264 169.07390594 C-698.30407209 169.07465679 -703.43866608 169.05653672 -708.57355309 169.02462196 C-710.44705587 169.0161802 -712.32060332 169.01433357 -714.19411659 169.01998711 C-734.74752847 169.07369496 -753.45667399 164.69480405 -770.34436035 152.46578979 C-770.34436035 151.80578979 -770.34436035 151.14578979 -770.34436035 150.46578979 C-770.91799316 150.21313354 -771.49162598 149.96047729 -772.0826416 149.70016479 C-785.16145974 142.56215697 -794.01235812 124.75041612 -798.0513916 111.07125854 C-802.9590863 90.91087242 -800.36176671 69.08387109 -789.9967041 51.04391479 C-787.81516188 47.64009005 -785.41518018 44.47147896 -782.85998535 41.34078979 C-781.18948911 39.33279225 -781.18948911 39.33279225 -779.34436035 36.46578979 C-778.68436035 36.46578979 -778.02436035 36.46578979 -777.34436035 36.46578979 C-777.01436035 35.47578979 -776.68436035 34.48578979 -776.34436035 33.46578979 C-775.68436035 33.46578979 -775.02436035 33.46578979 -774.34436035 33.46578979 C-774.34436035 32.80578979 -774.34436035 32.14578979 -774.34436035 31.46578979 C-772.41724452 29.92832591 -770.50726749 28.53025408 -768.46936035 27.15328979 C-767.87582764 26.74957153 -767.28229492 26.34585327 -766.67077637 25.92990112 C-748.96145926 14.08159842 -730.70282606 11.15391632 -709.7782135 11.20509338 C-708.01583045 11.20206845 -706.2534487 11.19817726 -704.49106926 11.19350082 C-699.67478457 11.18325633 -694.85857461 11.18539354 -690.04228389 11.18968141 C-684.83769046 11.19215507 -679.63311472 11.1831266 -674.42852783 11.17564392 C-664.24294614 11.16291316 -654.05739083 11.16110116 -643.87180252 11.16344418 C-635.59130446 11.16522913 -627.3108144 11.16347392 -619.03031731 11.15921974 C-617.26076735 11.15832696 -617.26076735 11.15832696 -615.4554689 11.15741614 C-613.05872282 11.15620436 -610.66197673 11.15499022 -608.26523065 11.15377376 C-585.8035954 11.14290471 -563.34197517 11.14505785 -540.88033908 11.15115861 C-520.34247758 11.15632857 -499.8046635 11.14506909 -479.26681138 11.12606039 C-458.16338263 11.10667836 -437.05997632 11.09842655 -415.95653862 11.10218364 C-404.11458553 11.10409495 -392.27267282 11.10161481 -380.43072701 11.0874691 C-370.35086958 11.07554979 -360.27107738 11.07415672 -350.19121904 11.08625927 C-345.05138141 11.09214371 -339.91166307 11.09325927 -334.77183342 11.08125687 C-330.06099574 11.07038427 -325.35037675 11.07351782 -320.63954925 11.08751855 C-318.94116846 11.09016165 -317.24277046 11.08781119 -315.5444066 11.07978269 C-291.45750774 10.97387907 -277.04899188 17.9933942 -259.99279785 34.64938354 C-258.23237929 36.39806598 -256.47457062 38.14937968 -254.71936035 39.90328979 C-253.35617676 41.24810425 -253.35617676 41.24810425 -251.9654541 42.62008667 C-251.10822754 43.47537964 -250.25100098 44.33067261 -249.36779785 45.21188354 C-248.59355469 45.98201782 -247.81931152 46.7521521 -247.02160645 47.54562378 C-245.34436035 49.46578979 -245.34436035 49.46578979 -245.34436035 51.46578979 C-244.8132666 51.67203979 -244.28217285 51.87828979 -243.73498535 52.09078979 C-240.33662599 54.04540171 -237.83380107 56.68702696 -235.09436035 59.46578979 C-234.26291504 60.28563354 -234.26291504 60.28563354 -233.41467285 61.12203979 C-229.34436035 65.2124031 -229.34436035 65.2124031 -229.34436035 67.46578979 C-228.68436035 67.46578979 -228.02436035 67.46578979 -227.34436035 67.46578979 C-227.34436035 68.12578979 -227.34436035 68.78578979 -227.34436035 69.46578979 C-226.38529785 69.86797729 -226.38529785 69.86797729 -225.40686035 70.27828979 C-223.34436035 71.46578979 -223.34436035 71.46578979 -222.34436035 74.46578979 C-221.68436035 74.46578979 -221.02436035 74.46578979 -220.34436035 74.46578979 C-220.34436035 75.12578979 -220.34436035 75.78578979 -220.34436035 76.46578979 C-219.38529785 76.86797729 -219.38529785 76.86797729 -218.40686035 77.27828979 C-216.34436035 78.46578979 -216.34436035 78.46578979 -215.34436035 81.46578979 C-214.68436035 81.46578979 -214.02436035 81.46578979 -213.34436035 81.46578979 C-213.34436035 82.12578979 -213.34436035 82.78578979 -213.34436035 83.46578979 C-212.68436035 83.46578979 -212.02436035 83.46578979 -211.34436035 83.46578979 C-211.34436035 84.12578979 -211.34436035 84.78578979 -211.34436035 85.46578979 C-210.68436035 85.46578979 -210.02436035 85.46578979 -209.34436035 85.46578979 C-207.71936035 86.84078979 -207.71936035 86.84078979 -206.34436035 88.46578979 C-206.34436035 89.12578979 -206.34436035 89.78578979 -206.34436035 90.46578979 C-205.68436035 90.46578979 -205.02436035 90.46578979 -204.34436035 90.46578979 C-204.34436035 91.12578979 -204.34436035 91.78578979 -204.34436035 92.46578979 C-203.68436035 92.46578979 -203.02436035 92.46578979 -202.34436035 92.46578979 C-200.95837402 93.86203003 -200.95837402 93.86203003 -199.3248291 95.83688354 C-194.97632682 100.94448724 -190.35853905 105.74624052 -185.65686035 110.52828979 C-184.81574707 111.40678589 -183.97463379 112.28528198 -183.10803223 113.19039917 C-182.29527832 114.01475464 -181.48252441 114.83911011 -180.6451416 115.68844604 C-179.914646 116.43876099 -179.18415039 117.18907593 -178.43151855 117.96212769 C-176.50607761 119.70766673 -176.50607761 119.70766673 -174.4072752 119.23016262 C-172.10858339 118.37842724 -170.97416366 117.46810274 -169.25056458 115.73948669 C-168.37361938 114.87089523 -168.37361938 114.87089523 -167.47895813 113.98475647 C-166.84970932 113.34629288 -166.22046051 112.70782928 -165.57214355 112.05001831 C-164.90016937 111.3800885 -164.22819519 110.71015869 -163.53585815 110.01992798 C-161.31495931 107.80203906 -159.10499329 105.57358802 -156.8951416 103.34469604 C-155.35684009 101.80333744 -153.81794759 100.26256844 -152.27848816 98.72236633 C-149.05358546 95.49285935 -145.83365907 92.25850073 -142.61755371 89.02023315 C-138.48812994 84.86250334 -134.3500561 80.71352177 -130.2086916 76.56768894 C-127.03156584 73.3864132 -123.85728187 70.20231565 -120.68404198 67.01716423 C-119.15862196 65.48603426 -117.63272415 63.95538016 -116.10634804 62.42520332 C-113.97772175 60.28972767 -111.85252304 58.15090324 -109.72839355 56.01095581 C-109.09307205 55.37451645 -108.45775055 54.73807709 -107.80317688 54.08235168 C-104.69875218 51.0583317 -104.69875218 51.0583317 -102.34436035 47.46578979 C-101.68436035 47.46578979 -101.02436035 47.46578979 -100.34436035 47.46578979 C-100.34436035 46.80578979 -100.34436035 46.14578979 -100.34436035 45.46578979 C-99.68436035 45.46578979 -99.02436035 45.46578979 -98.34436035 45.46578979 C-98.01436035 44.47578979 -97.68436035 43.48578979 -97.34436035 42.46578979 C-96.68436035 42.46578979 -96.02436035 42.46578979 -95.34436035 42.46578979 C-95.34436035 41.80578979 -95.34436035 41.14578979 -95.34436035 40.46578979 C-94.68436035 40.46578979 -94.02436035 40.46578979 -93.34436035 40.46578979 C-93.34436035 39.80578979 -93.34436035 39.14578979 -93.34436035 38.46578979 C-92.68436035 38.46578979 -92.02436035 38.46578979 -91.34436035 38.46578979 C-91.34436035 37.80578979 -91.34436035 37.14578979 -91.34436035 36.46578979 C-90.68436035 36.46578979 -90.02436035 36.46578979 -89.34436035 36.46578979 C-89.01436035 35.47578979 -88.68436035 34.48578979 -88.34436035 33.46578979 C-87.68436035 33.46578979 -87.02436035 33.46578979 -86.34436035 33.46578979 C-86.34436035 32.80578979 -86.34436035 32.14578979 -86.34436035 31.46578979 C-85.68436035 31.46578979 -85.02436035 31.46578979 -84.34436035 31.46578979 C-84.0760289 30.87377777 -83.80769745 30.28176575 -83.53123474 29.67181396 C-82.33560023 27.4495075 -81.11439618 25.96470479 -79.35437012 24.16940308 C-78.74936172 23.54840729 -78.14435333 22.9274115 -77.52101135 22.28759766 C-76.86588058 21.62710419 -76.21074982 20.96661072 -75.5357666 20.28610229 C-74.85441147 19.59571869 -74.17305634 18.90533508 -73.47105408 18.19403076 C-72.0254016 16.73387755 -70.57692647 15.27651437 -69.12585449 13.82174683 C-66.93376031 11.61783477 -64.76104066 9.39598829 -62.58850098 7.17282104 C-43.55083639 -12.08843753 -22.08271636 -20.10771428 0 0 Z " fill="#FDE893" transform="translate(897.3443603515625,207.53421020507813)"/>
<path d="M0 0 C56.1 0 112.2 0 170 0 C170 3 170 3 169 5 C168.90110501 7.27360294 168.86972163 9.55021009 168.86692142 11.82596111 C168.8646784 12.5396453 168.86243537 13.25332948 168.86012438 13.98864046 C168.85375638 16.40452624 168.85455008 18.82035848 168.85523987 21.23625183 C168.85210814 22.97620373 168.8485338 24.71615489 168.84455246 26.45610505 C168.83482396 31.25689559 168.83129899 36.05767422 168.82870948 40.85847318 C168.8248244 46.02919486 168.81518631 51.19990594 168.80615234 56.37062073 C168.79119201 65.33909579 168.77965682 74.30757 168.77020454 83.27605247 C168.75634309 96.25943891 168.73515573 109.24280579 168.71177601 122.22617821 C168.67382497 143.31053019 168.63887153 164.39488573 168.60717773 185.47924805 C168.604327 187.37368055 168.604327 187.37368055 168.60141867 189.30638442 C168.57461806 207.20783192 168.55073829 225.10928215 168.52803367 243.01073525 C168.52643637 244.26974877 168.52483906 245.52876229 168.52319336 246.82592773 C168.52159989 248.08340736 168.52000643 249.340887 168.51836468 250.63647207 C168.49157094 271.62434242 168.45715733 292.61219214 168.41653961 313.60004026 C168.39179471 326.54416991 168.37345115 339.48827737 168.363384 352.43242691 C168.35597675 361.31246685 168.3414259 370.19247702 168.32131977 379.07249721 C168.30996029 384.19222944 168.30179221 389.31191373 168.30232811 394.4316597 C168.30275845 399.12693286 168.29395259 403.82209841 168.27807831 408.51734392 C168.27395236 410.20797906 168.27310762 411.89862642 168.27604241 413.58926406 C168.32276605 444.29601119 161.31103961 469.92804897 139.8125 492.6875 C123.95871743 507.99003839 104.48349123 515.38167246 82.60253906 515.30297852 C66.1200651 514.96995274 51.03837724 510.12161171 38 500 C36.82630859 499.14728516 36.82630859 499.14728516 35.62890625 498.27734375 C17.17032132 484.61238796 6.04772504 462.24959687 2 440 C0.71686826 431.20915207 0.84658209 422.41718479 0.84178162 413.55528259 C0.83721152 411.76972502 0.83221084 409.9841685 0.82681805 408.19861323 C0.81327857 403.30487139 0.80583076 398.41113647 0.79939139 393.51738083 C0.79136898 388.23527286 0.77767756 382.95317919 0.76467896 377.67108154 C0.74294229 368.52372118 0.72478754 359.37635935 0.70907402 350.22898674 C0.68634979 337.0034632 0.65821051 323.77795553 0.62875474 310.55244548 C0.58111013 289.09429684 0.53783747 267.6361417 0.49731445 246.17797852 C0.45794359 225.33487442 0.41651355 204.49177609 0.37231445 183.64868164 C0.36959018 182.36365106 0.36686591 181.07862048 0.36405908 179.75464957 C0.35037934 173.3079505 0.33665912 166.86125151 0.32291877 160.41455257 C0.20900318 106.94304637 0.10298843 53.47152858 0 0 Z " fill="#037A80" transform="translate(364,375)"/>
<path d="M0 0 C3.98252956 3.69782126 7.87243939 7.4818011 11.73376465 11.30563354 C12.54883484 12.11263199 13.36390503 12.91963043 14.20367432 13.75108337 C15.90915966 15.44286031 17.61318735 17.13610791 19.3157959 18.83078003 C21.04507382 20.54848379 22.77882334 22.26169728 24.51696777 23.97042847 C27.05753061 26.46815401 29.58442474 28.97902524 32.10876465 31.49313354 C32.87763 32.24449081 33.64649536 32.99584808 34.43865967 33.76997375 C43.21755359 42.58414404 49.06304781 51.89633279 49.09313965 64.59078979 C48.96777888 87.44823699 28.38520027 101.89740865 13.42150879 116.90866089 C11.98170478 118.35521009 10.54227677 119.80213265 9.10290153 121.24910848 C2.84750022 127.53750932 -3.41352148 133.8202974 -9.67622003 140.10142988 C-11.30827317 141.73829362 -12.94024086 143.3752425 -14.57219243 145.01220751 C-24.73640236 155.20736379 -34.90276646 165.40036899 -45.07404232 175.58847618 C-47.41930525 177.93768753 -49.76454076 180.28692624 -52.10974121 182.63619995 C-52.69251469 183.2199818 -53.27528818 183.80376364 -53.87572146 184.40523584 C-63.33065392 193.87720154 -72.77345822 203.36116531 -82.21148818 212.84996991 C-91.92781382 222.61813269 -101.65549278 232.37487515 -111.39414698 242.12077773 C-116.85145251 247.58273326 -122.30366261 253.04956971 -127.74302483 258.52939987 C-132.37031939 263.19108365 -137.00777523 267.84235264 -141.65860765 272.48055856 C-144.02736554 274.84351364 -146.38924447 277.21238039 -148.74160385 279.5917244 C-151.30015976 282.17804642 -153.87675305 284.7450038 -156.45848083 287.3081665 C-157.18643118 288.05291178 -157.91438153 288.79765706 -158.66439098 289.56497037 C-167.28218129 298.0295887 -177.20820228 302.79081763 -189.29968262 302.85079956 C-204.06604546 302.52461722 -213.07900512 292.88193928 -222.90686035 283.07125854 C-223.58361816 282.39782913 -224.26037598 281.72439972 -224.9576416 281.03056335 C-226.37056219 279.62266116 -227.78217226 278.21344262 -229.19250488 276.802948 C-231.36142546 274.63624212 -233.53825943 272.47769328 -235.7154541 270.31930542 C-237.09224384 268.94544498 -238.46856347 267.57111324 -239.84436035 266.19625854 C-240.49735107 265.55045334 -241.1503418 264.90464813 -241.82312012 264.23927307 C-242.41794189 263.64137466 -243.01276367 263.04347626 -243.62561035 262.42745972 C-244.15219238 261.9023027 -244.67877441 261.37714569 -245.22131348 260.83607483 C-246.34436035 259.46578979 -246.34436035 259.46578979 -246.34436035 257.46578979 C-247.00436035 257.46578979 -247.66436035 257.46578979 -248.34436035 257.46578979 C-248.34436035 256.80578979 -248.34436035 256.14578979 -248.34436035 255.46578979 C-248.98373535 255.19766479 -249.62311035 254.92953979 -250.28186035 254.65328979 C-252.34436035 253.46578979 -252.34436035 253.46578979 -253.34436035 250.46578979 C-254.00436035 250.46578979 -254.66436035 250.46578979 -255.34436035 250.46578979 C-255.34436035 249.80578979 -255.34436035 249.14578979 -255.34436035 248.46578979 C-256.00436035 248.46578979 -256.66436035 248.46578979 -257.34436035 248.46578979 C-257.34436035 247.80578979 -257.34436035 247.14578979 -257.34436035 246.46578979 C-257.98373535 246.19766479 -258.62311035 245.92953979 -259.28186035 245.65328979 C-261.34436035 244.46578979 -261.34436035 244.46578979 -262.34436035 241.46578979 C-263.00436035 241.46578979 -263.66436035 241.46578979 -264.34436035 241.46578979 C-264.34436035 240.80578979 -264.34436035 240.14578979 -264.34436035 239.46578979 C-265.30342285 239.06360229 -265.30342285 239.06360229 -266.28186035 238.65328979 C-268.34436035 237.46578979 -268.34436035 237.46578979 -269.34436035 234.46578979 C-270.00436035 234.46578979 -270.66436035 234.46578979 -271.34436035 234.46578979 C-271.34436035 233.80578979 -271.34436035 233.14578979 -271.34436035 232.46578979 C-272.00436035 232.46578979 -272.66436035 232.46578979 -273.34436035 232.46578979 C-273.34436035 231.80578979 -273.34436035 231.14578979 -273.34436035 230.46578979 C-274.33436035 230.13578979 -275.32436035 229.80578979 -276.34436035 229.46578979 C-276.67436035 228.47578979 -277.00436035 227.48578979 -277.34436035 226.46578979 C-276.23015118 224.74508095 -276.23015118 224.74508095 -274.47465515 222.85119629 C-273.82202887 222.14331593 -273.16940258 221.43543556 -272.49699974 220.70610428 C-268.79734942 216.85577048 -265.05095427 213.05942577 -261.25964355 209.29928589 C-260.37747162 208.42018051 -259.49529968 207.54107513 -258.58639526 206.6353302 C-256.68323596 204.73928887 -254.77921123 202.84416659 -252.87368202 200.95051193 C-249.85694434 197.95222321 -246.84469244 194.94945427 -243.83317566 191.94592285 C-235.27452075 183.4113055 -226.70988197 174.88270778 -218.14099121 166.35836792 C-213.39630177 161.63826817 -208.65524678 156.9145476 -203.9180209 152.186957 C-200.92848083 149.20393358 -197.93450535 146.2254593 -194.93709338 143.2503469 C-192.63432346 140.96211194 -190.33812728 138.66729548 -188.04089355 136.37350464 C-187.21535477 135.55672745 -186.38981598 134.73995026 -185.53926086 133.89842224 C-180.85560169 129.21436096 -180.85560169 129.21436096 -176.92582703 123.90905762 C-176.40394302 123.10277924 -175.88205902 122.29650085 -175.34436035 121.46578979 C-174.68436035 121.46578979 -174.02436035 121.46578979 -173.34436035 121.46578979 C-173.07242639 120.86867754 -172.80049242 120.27156528 -172.52031803 119.65635872 C-171.36711181 117.50817111 -170.24843183 116.12523872 -168.52903748 114.41668701 C-167.95557083 113.8419162 -167.38210419 113.26714539 -166.79125977 112.67495728 C-166.16417114 112.05663025 -165.53708252 111.43830322 -164.89099121 110.80123901 C-164.22906265 110.14062469 -163.56713409 109.48001038 -162.88514709 108.79937744 C-160.69772635 106.61844418 -158.50342269 104.44456928 -156.3092041 102.27047729 C-154.78937438 100.75691763 -153.27005844 99.2428419 -151.75123596 97.72827148 C-147.75274627 93.74308551 -143.74872815 89.76350444 -139.74310303 85.78549194 C-133.3264384 79.41194985 -126.91649062 73.03166974 -120.50973701 66.64816666 C-118.26686165 64.41554271 -116.02061971 62.18634666 -113.77403259 59.9574585 C-112.40535277 58.59560401 -111.03678094 57.23364098 -109.66833496 55.87155151 C-109.03922211 55.24917603 -108.41010925 54.62680054 -107.76193237 53.98556519 C-104.67518733 51.01414151 -104.67518733 51.01414151 -102.34436035 47.46578979 C-101.68436035 47.46578979 -101.02436035 47.46578979 -100.34436035 47.46578979 C-100.34436035 46.80578979 -100.34436035 46.14578979 -100.34436035 45.46578979 C-99.68436035 45.46578979 -99.02436035 45.46578979 -98.34436035 45.46578979 C-98.01436035 44.47578979 -97.68436035 43.48578979 -97.34436035 42.46578979 C-96.68436035 42.46578979 -96.02436035 42.46578979 -95.34436035 42.46578979 C-95.34436035 41.80578979 -95.34436035 41.14578979 -95.34436035 40.46578979 C-94.68436035 40.46578979 -94.02436035 40.46578979 -93.34436035 40.46578979 C-93.34436035 39.80578979 -93.34436035 39.14578979 -93.34436035 38.46578979 C-92.68436035 38.46578979 -92.02436035 38.46578979 -91.34436035 38.46578979 C-91.34436035 37.80578979 -91.34436035 37.14578979 -91.34436035 36.46578979 C-90.68436035 36.46578979 -90.02436035 36.46578979 -89.34436035 36.46578979 C-89.01436035 35.47578979 -88.68436035 34.48578979 -88.34436035 33.46578979 C-87.68436035 33.46578979 -87.02436035 33.46578979 -86.34436035 33.46578979 C-86.34436035 32.80578979 -86.34436035 32.14578979 -86.34436035 31.46578979 C-85.68436035 31.46578979 -85.02436035 31.46578979 -84.34436035 31.46578979 C-84.0760289 30.87377777 -83.80769745 30.28176575 -83.53123474 29.67181396 C-82.33560023 27.4495075 -81.11439618 25.96470479 -79.35437012 24.16940308 C-78.74936172 23.54840729 -78.14435333 22.9274115 -77.52101135 22.28759766 C-76.5383152 21.29685745 -76.5383152 21.29685745 -75.5357666 20.28610229 C-74.85441147 19.59571869 -74.17305634 18.90533508 -73.47105408 18.19403076 C-72.0254016 16.73387755 -70.57692647 15.27651437 -69.12585449 13.82174683 C-66.93376031 11.61783477 -64.76104066 9.39598829 -62.58850098 7.17282104 C-43.55083639 -12.08843753 -22.08271636 -20.10771428 0 0 Z " fill="#70DECD" transform="translate(897.3443603515625,207.53421020507813)"/>
<path d="M0 0 C1.76238305 -0.00302493 3.5247648 -0.00691612 5.28714424 -0.01159257 C10.10342893 -0.02183705 14.91963889 -0.01969984 19.73592961 -0.01541197 C24.94052304 -0.01293832 30.14509878 -0.02196678 35.34968567 -0.02944946 C45.53526736 -0.04218022 55.72082267 -0.04399222 65.90641098 -0.0416492 C74.18690904 -0.03986425 82.4673991 -0.04161947 90.74789619 -0.04587364 C92.51744615 -0.04676643 92.51744615 -0.04676643 94.3227446 -0.04767724 C96.71949068 -0.04888903 99.11623677 -0.05010316 101.51298285 -0.05131962 C123.9746181 -0.06218867 146.43623833 -0.06003553 168.89787442 -0.05393478 C189.43573592 -0.04876482 209.97355 -0.06002429 230.51140212 -0.07903299 C251.61483087 -0.09841503 272.71823718 -0.10666684 293.82167488 -0.10290974 C305.66362797 -0.10099843 317.50554068 -0.10347858 329.3474865 -0.11762428 C339.42734393 -0.1295436 349.50713613 -0.13093666 359.58699446 -0.11883412 C364.72683209 -0.11294967 369.86655043 -0.11183411 375.00638008 -0.12383652 C379.71721776 -0.13470911 384.42783675 -0.13157557 389.13866425 -0.11757483 C390.83704504 -0.11493174 392.53544304 -0.11728219 394.2338069 -0.1253107 C418.32070576 -0.23121432 432.72922163 6.78830082 449.78541565 23.44429016 C451.54583421 25.1929726 453.30364288 26.9442863 455.05885315 28.69819641 C455.96764221 29.59473938 456.87643127 30.49128235 457.8127594 31.41499329 C458.66998596 32.27028625 459.52721252 33.12557922 460.41041565 34.00679016 C461.18465881 34.77692444 461.95890198 35.54705872 462.75660706 36.3405304 C464.43385315 38.26069641 464.43385315 38.26069641 464.43385315 40.26069641 C465.0268219 40.51593079 465.61979065 40.77116516 466.23072815 41.03413391 C468.64609853 42.37886139 469.94597021 43.75284008 471.68385315 45.88569641 C472.46502502 46.83315735 472.46502502 46.83315735 473.26197815 47.79975891 C473.84205627 48.52292297 473.84205627 48.52292297 474.43385315 49.26069641 C471.43385315 49.26069641 471.43385315 49.26069641 469.84288025 48.01029968 C469.27268158 47.42439056 468.70248291 46.83848145 468.11500549 46.2348175 C467.46357574 45.57347809 466.812146 44.91213867 466.14097595 44.23075867 C465.4409848 43.5058725 464.74099365 42.78098633 464.01979065 42.03413391 C463.29071503 41.29369843 462.5616394 40.55326294 461.81047058 39.79039001 C458.68702773 36.61792779 455.58121648 33.42841485 452.47438049 30.23970032 C450.20421987 27.91483703 447.92477106 25.59936161 445.64479065 23.28413391 C444.95694489 22.57139313 444.26909912 21.85865234 443.56040955 21.12431335 C437.38831748 14.86097933 430.76098138 9.55659129 422.24635315 6.94819641 C421.28342346 6.6426886 420.32049377 6.33718079 419.3283844 6.02241516 C413.83542003 4.57689822 408.66977551 4.13427664 402.99355507 4.12647533 C402.26204812 4.1241231 401.53054116 4.12177087 400.77686733 4.11934736 C398.32443034 4.11268772 395.8720467 4.11311467 393.41960144 4.11352539 C391.64391162 4.11022487 389.86822254 4.1064989 388.09253442 4.10238391 C383.21149932 4.09237709 378.33047652 4.08864923 373.44943261 4.0859946 C368.18537389 4.0820876 362.92132486 4.07250949 357.65727234 4.06378174 C344.94323443 4.04402783 332.22919573 4.03395217 319.51514632 4.02505395 C313.52509005 4.02066902 307.53503466 4.01530272 301.5449791 4.01006508 C281.62753546 3.99305337 261.71009238 3.97855997 241.79264259 3.97131634 C236.62503178 3.9694065 231.45742097 3.96748616 226.28981018 3.9655304 C225.00545458 3.96504666 223.72109897 3.96456292 222.3978235 3.96406452 C201.59970429 3.95576711 180.80164265 3.9304348 160.00354858 3.89794972 C138.64152579 3.86485639 117.27953224 3.84686549 95.91748369 3.8436721 C83.92721319 3.84150904 71.93702664 3.83279031 59.94678116 3.80721092 C49.73364157 3.78547284 39.5206063 3.7774688 29.3074462 3.7871777 C24.1004056 3.79171345 18.89358012 3.78987839 13.68656921 3.77041626 C8.91052437 3.75271985 4.13485055 3.7538346 -0.64119859 3.76931355 C-2.36000503 3.77167983 -4.0788376 3.76741754 -5.79760425 3.7554849 C-19.84324281 3.66408956 -33.4180241 5.2671567 -46.00364685 12.07319641 C-46.66630554 12.41939026 -47.32896423 12.76558411 -48.01170349 13.12226868 C-53.32898992 15.97349164 -58.09597875 19.19058226 -62.56614685 23.26069641 C-63.31122498 23.92585266 -64.0563031 24.59100891 -64.82395935 25.27632141 C-72.74800614 32.74372821 -79.31699081 41.25077124 -81.9841156 51.93647766 C-82.87623814 55.4989804 -84.24468351 58.83690503 -85.56614685 62.26069641 C-85.89614685 63.25069641 -86.22614685 64.24069641 -86.56614685 65.26069641 C-87.55614685 64.93069641 -88.54614685 64.60069641 -89.56614685 64.26069641 C-85.92953984 51.43602477 -81.62153014 40.59882368 -73.08177185 30.13569641 C-71.41127561 28.12769887 -71.41127561 28.12769887 -69.56614685 25.26069641 C-68.90614685 25.26069641 -68.24614685 25.26069641 -67.56614685 25.26069641 C-67.23614685 24.27069641 -66.90614685 23.28069641 -66.56614685 22.26069641 C-65.90614685 22.26069641 -65.24614685 22.26069641 -64.56614685 22.26069641 C-64.56614685 21.60069641 -64.56614685 20.94069641 -64.56614685 20.26069641 C-62.63903102 18.72323253 -60.72905399 17.3251607 -58.69114685 15.94819641 C-58.09761414 15.54447815 -57.50408142 15.14075989 -56.89256287 14.72480774 C-39.18324576 2.87650504 -20.92461256 -0.05117706 0 0 Z " fill="#FAF5A0" transform="translate(187.56614685058594,218.7393035888672)"/>
<path d="M0 0 C3.98252956 3.69782126 7.87243939 7.4818011 11.73376465 11.30563354 C12.54883484 12.11263199 13.36390503 12.91963043 14.20367432 13.75108337 C15.90915966 15.44286031 17.61318735 17.13610791 19.3157959 18.83078003 C21.04507382 20.54848379 22.77882334 22.26169728 24.51696777 23.97042847 C27.05753061 26.46815401 29.58442474 28.97902524 32.10876465 31.49313354 C32.87763 32.24449081 33.64649536 32.99584808 34.43865967 33.76997375 C43.21755359 42.58414404 49.06304781 51.89633279 49.09313965 64.59078979 C48.97434564 86.25089659 30.96658696 99.3044156 16.71936035 113.51559448 C15.14118812 115.09348405 13.56323723 116.67159502 11.98548889 118.24990845 C7.73644493 122.49923728 3.48434254 126.74549335 -0.76834846 130.99117184 C-5.22508139 135.44161933 -9.67894979 139.89493175 -14.13313293 144.34793091 C-21.59833158 151.81038263 -29.06526957 159.27109034 -36.53356934 166.73043823 C-44.21997441 174.40763967 -51.90531012 182.08590905 -59.5892334 189.76559448 C-60.06426273 190.24036109 -60.53929207 190.7151277 -61.02871623 191.20428118 C-63.41220793 193.58646768 -65.79567887 195.96867495 -68.17913949 198.35089254 C-87.89770927 218.05903243 -107.61984607 237.76359948 -127.34436035 257.46578979 C-128.33436035 257.13578979 -129.32436035 256.80578979 -130.34436035 256.46578979 C-129.47891035 255.60587055 -128.61346035 254.74595131 -127.72178459 253.85997391 C-107.15174828 233.42004689 -86.59734313 212.96449667 -66.06194865 192.48977007 C-63.53120015 189.96652529 -61.00032074 187.44341187 -58.46936035 184.92037964 C-57.96552032 184.41811347 -57.46168028 183.9158473 -56.94257237 183.39836094 C-48.79746156 175.27931691 -40.6418058 167.17094583 -32.48216318 159.0665094 C-24.10209013 150.74266021 -15.73354426 142.4073506 -7.37546074 134.06142116 C-2.68377426 129.37720937 2.01337737 124.69870022 6.72314835 120.03266144 C11.16025803 115.6364181 15.58292731 111.2261422 19.99514961 106.80492592 C21.61282278 105.18889705 23.23560581 103.57796375 24.86396217 101.97270012 C40.61135966 86.45149755 40.61135966 86.45149755 46.03063965 65.52828979 C46.08715174 45.17656679 29.03827823 32.59510156 15.77282715 19.23287964 C14.10955227 17.55298505 12.45166949 15.86773473 10.79919434 14.17721558 C8.38077942 11.70368419 5.94599842 9.24733451 3.50720215 6.79391479 C2.78287994 6.04692322 2.05855774 5.29993164 1.31228638 4.53030396 C-7.30499933 -4.05243399 -16.21927223 -8.82469357 -28.44030762 -8.85110474 C-41.65101089 -8.59458623 -50.5695085 -0.64704759 -59.4420166 8.33297729 C-60.07997665 8.97139557 -60.71793671 9.60981384 -61.37522888 10.26757812 C-62.71278231 11.60812975 -64.04792802 12.95108773 -65.3807373 14.2963562 C-67.40000613 16.33387363 -69.4271542 18.36328227 -71.45568848 20.39157104 C-80.03884474 28.97618424 -80.03884474 28.97618424 -88.09411621 38.05221558 C-89.94102302 40.1403996 -92.17085198 41.72698309 -94.34436035 43.46578979 C-95.43406658 44.67319779 -96.50282605 45.89964588 -97.55705261 47.13815308 C-101.03668661 51.15583111 -104.68277581 54.95223003 -108.44128418 58.70797729 C-109.11209015 59.38214188 -109.78289612 60.05630646 -110.47402954 60.75090027 C-112.66387503 62.95014834 -114.85738053 65.14569791 -117.0513916 67.34078979 C-118.58366561 68.87628022 -120.11586558 70.41184455 -121.647995 71.94747925 C-124.84441015 75.14985617 -128.04285905 78.35018589 -131.24255371 81.54928589 C-135.35134463 85.65797452 -139.45317493 89.77353866 -143.55333424 93.89083862 C-146.70766037 97.05624448 -149.86648155 100.2171343 -153.02661705 103.3767395 C-154.54215621 104.89346172 -156.05606718 106.41181262 -157.56833839 107.93179321 C-159.6723427 110.04553024 -161.78250934 112.15291437 -163.89440918 114.25875854 C-164.52142227 114.89139114 -165.14843536 115.52402374 -165.79444885 116.17582703 C-170.11603502 120.46578979 -170.11603502 120.46578979 -172.34436035 120.46578979 C-172.83936035 121.45578979 -172.83936035 121.45578979 -173.34436035 122.46578979 C-172.76407248 119.28030902 -171.90151172 117.65053408 -169.61132812 115.37872314 C-169.03082199 114.79553818 -168.45031586 114.21235321 -167.85221863 113.61149597 C-167.21218399 112.98381821 -166.57214935 112.35614044 -165.91271973 111.70944214 C-165.24118362 111.03907425 -164.56964752 110.36870636 -163.87776184 109.67802429 C-161.65476272 107.46221734 -159.42144328 105.25711415 -157.18811035 103.05172729 C-155.64421442 101.51596567 -154.10105156 99.97946676 -152.55859375 98.44226074 C-148.49486771 94.39566579 -144.42265882 90.35772027 -140.34820557 86.32192993 C-133.82383121 79.85671915 -127.312079 73.37880095 -120.80085754 66.90034866 C-118.5206474 64.6341413 -116.23668721 62.37176702 -113.95214844 60.10992432 C-112.56001818 58.72781403 -111.1679648 57.3456263 -109.77600098 55.96334839 C-109.13596634 55.33162216 -108.4959317 54.69989594 -107.83650208 54.04902649 C-104.70737658 51.05040432 -104.70737658 51.05040432 -102.34436035 47.46578979 C-101.68436035 47.46578979 -101.02436035 47.46578979 -100.34436035 47.46578979 C-100.34436035 46.80578979 -100.34436035 46.14578979 -100.34436035 45.46578979 C-99.68436035 45.46578979 -99.02436035 45.46578979 -98.34436035 45.46578979 C-98.01436035 44.47578979 -97.68436035 43.48578979 -97.34436035 42.46578979 C-96.68436035 42.46578979 -96.02436035 42.46578979 -95.34436035 42.46578979 C-95.34436035 41.80578979 -95.34436035 41.14578979 -95.34436035 40.46578979 C-94.68436035 40.46578979 -94.02436035 40.46578979 -93.34436035 40.46578979 C-93.34436035 39.80578979 -93.34436035 39.14578979 -93.34436035 38.46578979 C-92.68436035 38.46578979 -92.02436035 38.46578979 -91.34436035 38.46578979 C-91.34436035 37.80578979 -91.34436035 37.14578979 -91.34436035 36.46578979 C-90.68436035 36.46578979 -90.02436035 36.46578979 -89.34436035 36.46578979 C-89.01436035 35.47578979 -88.68436035 34.48578979 -88.34436035 33.46578979 C-87.68436035 33.46578979 -87.02436035 33.46578979 -86.34436035 33.46578979 C-86.34436035 32.80578979 -86.34436035 32.14578979 -86.34436035 31.46578979 C-85.68436035 31.46578979 -85.02436035 31.46578979 -84.34436035 31.46578979 C-83.94186317 30.57777176 -83.94186317 30.57777176 -83.53123474 29.67181396 C-82.33560023 27.4495075 -81.11439618 25.96470479 -79.35437012 24.16940308 C-78.74936172 23.54840729 -78.14435333 22.9274115 -77.52101135 22.28759766 C-76.86588058 21.62710419 -76.21074982 20.96661072 -75.5357666 20.28610229 C-74.5137339 19.25052689 -74.5137339 19.25052689 -73.47105408 18.19403076 C-72.0254016 16.73387755 -70.57692647 15.27651437 -69.12585449 13.82174683 C-66.93376031 11.61783477 -64.76104066 9.39598829 -62.58850098 7.17282104 C-43.55083639 -12.08843753 -22.08271636 -20.10771428 0 0 Z " fill="#7CF8E4" transform="translate(897.3443603515625,207.53421020507813)"/>
<path d="M0 0 C56.1 0 112.2 0 170 0 C170 3 170 3 169 5 C168.90110501 7.27360294 168.86972163 9.55021009 168.86692142 11.82596111 C168.8646784 12.5396453 168.86243537 13.25332948 168.86012438 13.98864046 C168.85375638 16.40452624 168.85455008 18.82035848 168.85523987 21.23625183 C168.85210814 22.97620373 168.8485338 24.71615489 168.84455246 26.45610505 C168.83482396 31.25689559 168.83129899 36.05767422 168.82870948 40.85847318 C168.8248244 46.02919486 168.81518631 51.19990594 168.80615234 56.37062073 C168.79119201 65.33909579 168.77965682 74.30757 168.77020454 83.27605247 C168.75634309 96.25943891 168.73515573 109.24280579 168.71177601 122.22617821 C168.67382497 143.31053019 168.63887153 164.39488573 168.60717773 185.47924805 C168.604327 187.37368055 168.604327 187.37368055 168.60141867 189.30638442 C168.57461806 207.20783192 168.55073829 225.10928215 168.52803367 243.01073525 C168.52643637 244.26974877 168.52483906 245.52876229 168.52319336 246.82592773 C168.52159989 248.08340736 168.52000643 249.340887 168.51836468 250.63647207 C168.49157094 271.62434242 168.45715733 292.61219214 168.41653961 313.60004026 C168.39179471 326.54416991 168.37345115 339.48827737 168.363384 352.43242691 C168.35597675 361.31246685 168.3414259 370.19247702 168.32131977 379.07249721 C168.30996029 384.19222944 168.30179221 389.31191373 168.30232811 394.4316597 C168.30275845 399.12693286 168.29395259 403.82209841 168.27807831 408.51734392 C168.27395236 410.20797906 168.27310762 411.89862642 168.27604241 413.58926406 C168.2914956 423.74508862 168.25612415 434.04508871 166 444 C165.34 444.33 164.68 444.66 164 445 C164.07042999 444.26849202 164.14085998 443.53698405 164.21342421 442.78330916 C165.04918906 433.22690934 165.15023204 423.74661744 165.15148926 414.16365051 C165.15534651 412.38431587 165.15963527 410.60498211 165.16431475 408.82564944 C165.1758743 403.96760763 165.1814196 399.10957517 165.18594956 394.25152242 C165.19192921 389.00080457 165.20358882 383.75009896 165.21458435 378.49938965 C165.23288642 369.41212603 165.24775044 360.3248621 165.26036072 351.23758888 C165.27868796 338.09688369 165.30335031 324.95619608 165.32973462 311.81550487 C165.3724728 290.4905343 165.41160455 269.16555889 165.44775391 247.84057617 C165.44991671 246.56547858 165.45207951 245.29038098 165.45430785 243.97664406 C165.47183846 233.62473479 165.48919169 223.27282523 165.50651073 212.9209156 C165.52167935 203.8557242 165.53690996 194.79053291 165.55224609 185.7253418 C165.55440496 184.44846691 165.55656383 183.17159201 165.55878812 181.85602394 C165.59485406 160.59554229 165.6347974 139.33506964 165.67754889 118.0746004 C165.70373498 104.95850169 165.7263866 91.84240575 165.74453247 78.72629341 C165.75716788 69.75301861 165.77328193 60.77975453 165.79218161 51.80649076 C165.80297067 46.62349527 165.81207816 41.4405102 165.81687737 36.25750542 C165.82128904 31.52020461 165.8302073 26.78293524 165.84282058 22.04564937 C165.84657679 20.32528988 165.84861855 18.60492569 165.84884077 16.88456211 C165.84937684 14.55954894 165.85594854 12.23463151 165.86412811 9.90963459 C165.86624408 8.6142408 165.86836005 7.31884701 165.87054014 5.98419887 C166 3 166 3 167 1 C112.22 1 57.44 1 1 1 C0.67 1.66 0.34 2.32 0 3 C0 2.01 0 1.02 0 0 Z " fill="#007B83" transform="translate(364,375)"/>
<path d="M0 0 C0.33 0 0.66 0 1 0 C1.00410889 0.66306152 1.00821777 1.32612305 1.01245117 2.00927734 C1.01480343 26.89319353 1.01480343 26.89319353 10.7890625 49.296875 C12 51 12 51 13.3359375 53.8359375 C21.87359958 70.06952033 39.47181774 79.74115291 56.23828125 85.203125 C61.55981363 86.73861666 66.51618773 87.15099302 72.04219055 87.15821838 C72.84683894 87.16315636 73.65148733 87.16809434 74.480519 87.17318195 C77.17361544 87.18852585 79.8666881 87.19690915 82.55981445 87.20532227 C84.49156401 87.21490323 86.42331148 87.22491344 88.35505676 87.23532104 C93.59838175 87.26235248 98.84171573 87.28337161 104.0850718 87.30332303 C109.56504722 87.32519342 115.044995 87.35257697 120.52494812 87.37937927 C130.9016449 87.42929189 141.27835703 87.47423605 151.65508384 87.51740164 C163.46877804 87.56678622 175.28244451 87.62169983 187.09611189 87.67708123 C211.39738205 87.79087932 235.69867882 87.89772311 260 88 C260 88.99 260 89.98 260 91 C235.1122945 91.0936455 210.22461561 91.16407804 185.3367691 91.20724869 C173.77962842 91.22783074 162.22259753 91.2558677 150.66552734 91.30175781 C140.58660953 91.34175932 130.50777126 91.36746444 120.42877626 91.37635398 C115.09724859 91.38154625 109.76594842 91.39365831 104.43449402 91.42292023 C99.40464607 91.45030012 94.37511689 91.45839988 89.34520149 91.45243073 C87.51036401 91.45352095 85.67551459 91.46133917 83.84074211 91.4768219 C63.40311889 91.64065955 44.77673863 87.1486728 28 75 C28 74.34 28 73.68 28 73 C27.42636719 72.74734375 26.85273437 72.4946875 26.26171875 72.234375 C13.18290061 65.09636717 4.33200223 47.28462633 0.29296875 33.60546875 C-2.41148148 22.49582069 -3.20458525 11.0157618 0 0 Z " fill="#FAEE9C" transform="translate(99,285)"/>
<path d="M0 0 C2.98643612 1.32986753 4.94005141 2.73622814 7.13696289 5.1472168 C7.73504257 5.79503616 8.33312225 6.44285553 8.94932556 7.11030579 C9.59639969 7.82027206 10.24347382 8.53023834 10.91015625 9.26171875 C19.96776886 19.03486493 29.26598151 28.55461864 38.65698242 38.00708008 C40.52874397 39.89560514 42.39574077 41.78763181 44.25561523 43.68774414 C46.98816483 46.47926649 49.74125461 49.24999511 52.49609375 52.01953125 C53.72917519 53.28661674 53.72917519 53.28661674 54.98716736 54.57929993 C62.60394723 62.16855062 70.24003074 66.00235382 81.0625 66.3125 C100.14274608 66.0047541 111.17741865 50.96950953 123.625 38.4375 C124.92814946 37.1293222 126.2315333 35.82137783 127.53515625 34.51367188 C130.69280792 31.34512786 133.8472875 28.17345823 137 25 C137.99 25.99 137.99 25.99 139 27 C134.25708342 31.89635911 129.48976208 36.76799299 124.70556641 41.62402344 C123.08442848 43.27514065 121.46873918 44.93162747 119.85888672 46.59375 C98.19546925 68.94212363 98.19546925 68.94212363 82.0625 69.375 C67.21690431 69.44864421 58.40954361 61.47080999 48.3671875 51.53178406 C47.73039063 50.89610001 47.09359375 50.26041595 46.4375 49.60546875 C45.42236328 48.59532463 45.42236328 48.59532463 44.38671875 47.56477356 C42.97379816 46.15687137 41.56218809 44.74765282 40.15185547 43.3371582 C37.9829349 41.17045232 35.80610093 39.01190348 33.62890625 36.85351562 C32.25211651 35.47965519 30.87579688 34.10532344 29.5 32.73046875 C28.84700928 32.08466354 28.19401855 31.43885834 27.52124023 30.77348328 C26.92641846 30.17558487 26.33159668 29.57768646 25.71875 28.96166992 C25.19216797 28.43651291 24.66558594 27.9113559 24.12304688 27.37028503 C23 26 23 26 23 24 C22.34 24 21.68 24 21 24 C21 23.34 21 22.68 21 22 C20.360625 21.731875 19.72125 21.46375 19.0625 21.1875 C17 20 17 20 16 17 C15.34 17 14.68 17 14 17 C14 16.34 14 15.68 14 15 C13.34 15 12.68 15 12 15 C12 14.34 12 13.68 12 13 C11.360625 12.731875 10.72125 12.46375 10.0625 12.1875 C8 11 8 11 7 8 C6.34 8 5.68 8 5 8 C5 7.34 5 6.68 5 6 C4.360625 5.7525 3.72125 5.505 3.0625 5.25 C1 4 1 4 0.25 1.875 C0.1675 1.25625 0.085 0.6375 0 0 Z " fill="#7CF7E4" transform="translate(628,441)"/>
<path d="M0 0 C56.1 0 112.2 0 170 0 C170 3 170 3 169.01740456 5.70582008 C167.86364309 9.44150009 167.71081645 12.8402338 167.7215271 16.70687866 C167.7128385 17.84162894 167.7128385 17.84162894 167.70397437 18.99930346 C167.68702624 21.52350515 167.68410236 24.04752343 167.68115234 26.57177734 C167.67185058 28.38545172 167.66168154 30.19912182 167.65071106 32.01278687 C167.62342497 36.92962107 167.60826573 41.84642665 167.59528303 46.76331663 C167.57964645 51.90430705 167.55285789 57.04523906 167.5272522 62.18618774 C167.4804738 71.91827376 167.44372511 81.65037078 167.41057932 91.38251173 C167.37235134 102.46349189 167.32294293 113.54441336 167.27259517 124.62534404 C167.16928926 147.41685253 167.08002446 170.20839872 167 193 C166.67 193 166.34 193 166 193 C165.97666823 168.26162004 165.95901945 143.52324172 165.94818783 118.78485298 C165.94302546 107.29911049 165.93598389 95.81337483 165.92456055 84.32763672 C165.9146119 74.31990393 165.90814614 64.31217607 165.90591151 54.30443847 C165.90460471 49.00251458 165.90152079 43.70060483 165.89426994 38.39868546 C165.88750689 33.41328155 165.88538363 28.42789768 165.88689232 23.44248962 C165.88661612 21.60823839 165.88461268 19.77398651 165.88079453 17.93973923 C165.87585284 15.44434908 165.8770035 12.94903555 165.87974548 10.4536438 C165.87537622 9.35346206 165.87537622 9.35346206 165.87091869 8.23105443 C165.88587879 3.22824242 165.88587879 3.22824242 167 1 C112.22 1 57.44 1 1 1 C0.67 1.66 0.34 2.32 0 3 C0 2.01 0 1.02 0 0 Z " fill="#03878E" transform="translate(364,375)"/>
<path d="M0 0 C0.33 0 0.66 0 1 0 C1.00410889 0.66306152 1.00821777 1.32612305 1.01245117 2.00927734 C1.01480343 26.89319353 1.01480343 26.89319353 10.7890625 49.296875 C12 51 12 51 13.3359375 53.8359375 C21.87359958 70.06952033 39.47181774 79.74115291 56.23828125 85.203125 C61.17522248 86.62764553 65.73247347 87.15130444 70.875 87.28125 C72.18984375 87.31863281 73.5046875 87.35601562 74.859375 87.39453125 C76.23957068 87.43018085 77.6197793 87.46533248 79 87.5 C81.7085281 87.5680311 84.4166887 87.64174899 87.125 87.71875 C88.92324219 87.76418945 88.92324219 87.76418945 90.7578125 87.81054688 C93.61196773 87.97732583 96.2210868 88.35246079 99 89 C98.67 89.66 98.34 90.32 98 91 C64.2402397 91.82682156 64.2402397 91.82682156 51 87 C50.10539062 86.71125 49.21078125 86.4225 48.2890625 86.125 C41.06421703 83.57237321 34.19043524 79.48272896 28 75 C28 74.34 28 73.68 28 73 C27.42636719 72.74734375 26.85273437 72.4946875 26.26171875 72.234375 C13.18290061 65.09636717 4.33200223 47.28462633 0.29296875 33.60546875 C-2.41148148 22.49582069 -3.20458525 11.0157618 0 0 Z " fill="#FEFAA2" transform="translate(99,285)"/>
<path d="M0 0 C0.33 0 0.66 0 1 0 C1.17346809 29.80961829 1.3362599 59.61928056 1.48431293 89.42903585 C1.50183295 92.95472546 1.51944325 96.48041463 1.53710938 100.00610352 C1.54062461 100.70795395 1.54413985 101.40980438 1.5477616 102.132923 C1.60476643 113.47157948 1.66907084 124.81018327 1.736111 136.14878435 C1.80482448 147.79812108 1.86545087 159.44747946 1.91914403 171.09689516 C1.9495267 177.63391147 1.98350559 184.17086331 2.02626419 190.70781136 C2.06645161 196.86940234 2.09679352 203.03096584 2.11981392 209.19264412 C2.1299246 211.44555551 2.14353164 213.69845457 2.16103554 215.95132065 C2.35439855 241.41303122 2.35439855 241.41303122 0 251 C-0.66 251.33 -1.32 251.66 -2 252 C-1.93019456 251.33321637 -1.86038912 250.66643274 -1.78846836 249.97944355 C-0.74177322 238.52657254 -0.82445931 227.07603153 -0.79467773 215.5847168 C-0.7850847 213.22814772 -0.77507381 210.87158032 -0.76467896 208.51501465 C-0.73777816 202.15029574 -0.71668886 195.78556952 -0.69667697 189.42082572 C-0.67695272 183.43323566 -0.65283628 177.44566392 -0.62875474 171.45809016 C-0.58123583 159.607896 -0.53792975 147.7576904 -0.49731445 135.9074707 C-0.45787919 124.40420647 -0.41643408 112.90095234 -0.37231445 101.39770508 C-0.36959018 100.68722854 -0.36686591 99.976752 -0.36405908 99.24474587 C-0.35037828 95.68007096 -0.33665827 92.11539621 -0.32291877 88.55072153 C-0.20920103 59.03383579 -0.10240865 29.51692717 0 0 Z " fill="#028991" transform="translate(530,568)"/>
<path d="M0 0 C0.99 0.33 1.98 0.66 3 1 C-6.08646502 10.13271592 -15.17825789 19.26009012 -24.27697563 28.38059998 C-28.50127315 32.61535427 -32.7236822 36.851957 -36.94189453 41.09277344 C-41.00941552 45.18195534 -45.0817404 49.26629474 -49.15750504 53.34725952 C-50.71504519 54.9085076 -52.27081813 56.47152068 -53.82482529 58.0362854 C-55.994349 60.22023423 -58.16995629 62.397938 -60.34716797 64.57421875 C-60.99452911 65.22877045 -61.64189026 65.88332214 -62.30886841 66.55770874 C-66.77189568 71 -66.77189568 71 -69 71 C-69.495 71.99 -69.495 71.99 -70 73 C-69.41931911 69.80976964 -68.55066905 68.17743491 -66.26023865 65.8994751 C-65.67828735 65.31339981 -65.09633606 64.72732452 -64.49674988 64.12348938 C-63.8551442 63.49266953 -63.21353851 62.86184967 -62.55249023 62.21191406 C-61.54277664 61.20154335 -61.54277664 61.20154335 -60.51266479 60.17076111 C-58.28501129 57.9451983 -56.04691843 55.7304509 -53.80859375 53.515625 C-52.26237336 51.97499954 -50.71681381 50.43371058 -49.17189026 48.89178467 C-45.10303193 44.83438314 -41.02524498 40.78607098 -36.94555664 36.73956299 C-32.78446426 32.60915324 -28.63184675 28.47024266 -24.47851562 24.33203125 C-16.3272997 16.21299424 -8.16662951 8.10353083 0 0 Z " fill="#80F4DD" transform="translate(794,257)"/>
<path d="M0 0 C56.1 0 112.2 0 170 0 C170 0.99 170 1.98 170 3 C169.34 3 168.68 3 168 3 C168 2.34 168 1.68 168 1 C112.89 1 57.78 1 1 1 C0.67 1.66 0.34 2.32 0 3 C0 2.01 0 1.02 0 0 Z " fill="#36918B" transform="translate(364,375)"/>
<path d="M0 0 C4.9323513 3.22228108 8.93195662 6.88563542 12.84375 11.2890625 C17.22752273 16.15602949 21.76355422 20.83693881 26.41796875 25.4453125 C27.05233353 26.07409302 27.6866983 26.70287354 28.34028625 27.35070801 C30.96087364 29.94395692 33.58555672 32.53299121 36.21411133 35.11816406 C38.16135064 37.03543133 40.10250489 38.95869175 42.04296875 40.8828125 C42.64280075 41.46918488 43.24263275 42.05555725 43.86064148 42.65969849 C45.27870296 44.0689702 46.64501322 45.52998097 48 47 C48 47.66 48 48.32 48 49 C48.66 49 49.32 49 50 49 C49.67 49.99 49.34 50.98 49 52 C48.67 51.34 48.34 50.68 48 50 C47.34 50 46.68 50 46 50 C44.59739685 48.57368469 44.59739685 48.57368469 42.95092773 46.57543945 C38.8130875 41.71260814 34.33807603 37.26467509 29.78515625 32.79296875 C28.03031784 31.05562245 26.27576873 29.31798388 24.52148438 27.58007812 C21.77687372 24.86659727 19.02999322 22.15553476 16.27807617 19.44946289 C13.60711046 16.82060433 10.94549459 14.18257534 8.28515625 11.54296875 C7.03847923 10.3242231 7.03847923 10.3242231 5.76661682 9.08085632 C5.00840134 8.32609512 4.25018585 7.57133392 3.46899414 6.79370117 C2.79727676 6.13166183 2.12555939 5.4696225 1.43348694 4.78752136 C0 3 0 3 0 0 Z " fill="#FDF49D" transform="translate(571,383)"/>
<path d="M0 0 C0.495 1.485 0.495 1.485 1 3 C0.40050537 3.59425781 -0.19898926 4.18851563 -0.81665039 4.80078125 C-3.07574527 7.04266107 -5.33244873 9.28691531 -7.58764648 11.53271484 C-8.55742273 12.49751459 -9.5281007 13.46140895 -10.49975586 14.42431641 C-15.72641441 19.60515072 -20.85645639 24.7958129 -25.59692383 30.42919922 C-27.51027417 32.57127267 -29.74983692 34.22355546 -32 36 C-32.89306578 37.06848941 -33.76757688 38.15270255 -34.625 39.25 C-35.800625 40.61125 -35.800625 40.61125 -37 42 C-37.99 42 -38.98 42 -40 42 C-40 41.34 -40 40.68 -40 40 C-39.34 40 -38.68 40 -38 40 C-38 39.34 -38 38.68 -38 38 C-37.34 38 -36.68 38 -36 38 C-35.67 37.01 -35.34 36.02 -35 35 C-34.34 35 -33.68 35 -33 35 C-33 34.34 -33 33.68 -33 33 C-32.34 33 -31.68 33 -31 33 C-31 32.34 -31 31.68 -31 31 C-30.34 31 -29.68 31 -29 31 C-29 30.34 -29 29.68 -29 29 C-28.34 29 -27.68 29 -27 29 C-26.67 28.01 -26.34 27.02 -26 26 C-25.34 26 -24.68 26 -24 26 C-24 25.34 -24 24.68 -24 24 C-23.34 24 -22.68 24 -22 24 C-21.7642627 23.43829102 -21.52852539 22.87658203 -21.28564453 22.29785156 C-19.69599628 19.45664964 -17.74656724 17.52192715 -15.4296875 15.234375 C-14.53378906 14.34492188 -13.63789062 13.45546875 -12.71484375 12.5390625 C-11.77769531 11.61867187 -10.84054687 10.69828125 -9.875 9.75 C-8.92011363 8.80515144 -7.96568141 7.85984367 -7.01171875 6.9140625 C-4.67890913 4.60481662 -2.34155914 2.30036797 0 0 Z " fill="#78FAE7" transform="translate(835,215)"/>
<path d="M0 0 C0.495 1.485 0.495 1.485 1 3 C-11.6579964 16.70123786 -26.91310966 28.43956349 -46 31 C-46 30.34 -46 29.68 -46 29 C-45.38253906 28.82984375 -44.76507813 28.6596875 -44.12890625 28.484375 C-26.76881754 23.51680015 -11.39580607 14.10909323 0 0 Z " fill="#028B8F" transform="translate(509,858)"/>
<path d="M0 0 C1.32 0.33 2.64 0.66 4 1 C4 1.66 4 2.32 4 3 C4.66 3 5.32 3 6 3 C6 3.66 6 4.32 6 5 C6.639375 5.268125 7.27875 5.53625 7.9375 5.8125 C10 7 10 7 11 10 C11.66 10 12.32 10 13 10 C13 10.66 13 11.32 13 12 C13.639375 12.268125 14.27875 12.53625 14.9375 12.8125 C17 14 17 14 18 17 C18.66 17 19.32 17 20 17 C20 17.66 20 18.32 20 19 C20.66 19 21.32 19 22 19 C22 19.66 22 20.32 22 21 C22.66 21 23.32 21 24 21 C25.625 22.375 25.625 22.375 27 24 C27 24.66 27 25.32 27 26 C27.66 26 28.32 26 29 26 C29 26.66 29 27.32 29 28 C29.66 28 30.32 28 31 28 C32.625 30 32.625 30 34 32 C33.505 32.99 33.505 32.99 33 34 C30.95880212 32.38405168 28.95927063 30.7143618 27 29 C27 28.34 27 27.68 27 27 C26.34 27 25.68 27 25 27 C23.44921875 25.390625 23.44921875 25.390625 21.6875 23.25 C19.69441586 20.89939355 17.91352052 18.93081642 15.5 17 C11.85312155 14.08249724 9.00872895 10.5563704 6 7 C4.8546408 5.66625935 3.70884353 4.33289472 2.5625 3 C1.716875 2.01 0.87125 1.02 0 0 Z " fill="#FEFAAE" transform="translate(664,272)"/>
<path d="M0 0 C0.71027344 0.71414063 1.42054688 1.42828125 2.15234375 2.1640625 C15.41872047 15.47532984 15.41872047 15.47532984 32 24 C31.67 24.99 31.34 25.98 31 27 C20.72477674 22.56449148 12.81369629 15.91753279 5 8 C4.071875 7.13375 3.14375 6.2675 2.1875 5.375 C0 3 0 3 0 0 Z " fill="#029094" transform="translate(386,857)"/>
<path d="M0 0 C3.11682419 1.38049749 5.19592249 2.96792685 7.56640625 5.40625 C8.21673828 6.06753906 8.86707031 6.72882813 9.53710938 7.41015625 C10.20548828 8.09980469 10.87386719 8.78945313 11.5625 9.5 C12.89483725 10.86682728 14.22938615 12.2315031 15.56640625 13.59375 C16.15365479 14.19896484 16.74090332 14.80417969 17.34594727 15.42773438 C19.11908186 17.20303483 19.11908186 17.20303483 22 19 C21.34 19 20.68 19 20 19 C19.67 19.66 19.34 20.32 19 21 C17.66070495 19.71451591 16.32871357 18.42141845 15 17.125 C14.2575 16.40570313 13.515 15.68640625 12.75 14.9453125 C11 13 11 13 11 11 C10.12601563 10.61328125 10.12601563 10.61328125 9.234375 10.21875 C6.8197097 8.90165983 5.18259823 7.44911616 3.25 5.5 C2.63640625 4.8915625 2.0228125 4.283125 1.390625 3.65625 C0 2 0 2 0 0 Z " fill="#FBF3A0" transform="translate(702,310)"/>
<path d="M0 0 C0.33 0 0.66 0 1 0 C0.55424322 6.04100227 -0.67533925 10.10300668 -3.8125 15.25 C-4.15603516 15.848125 -4.49957031 16.44625 -4.85351562 17.0625 C-6.88196713 20.50287554 -9.04389125 23.31625183 -12 26 C-12 22.86480059 -11.66225349 22.0530235 -10.13671875 19.453125 C-9.74419922 18.7725 -9.35167969 18.091875 -8.94726562 17.390625 C-8.53154297 16.68421875 -8.11582031 15.9778125 -7.6875 15.25 C-4.77166492 10.26471259 -2.16737231 5.3588105 0 0 Z " fill="#028390" transform="translate(524,831)"/>
<path d="M0 0 C0.66 0 1.32 0 2 0 C2.33 7.59 2.66 15.18 3 23 C2.34 23 1.68 23 1 23 C-0.23402862 18.22907044 -0.11265112 13.57530554 -0.0625 8.6875 C-0.05798828 7.85154297 -0.05347656 7.01558594 -0.04882812 6.15429688 C-0.03710548 4.10283351 -0.01917203 2.05140727 0 0 Z " fill="#02878D" transform="translate(366,797)"/>
<path d="M0 0 C0 3 0 3 -1.53125 4.82421875 C-3.35416667 6.54947917 -5.17708333 8.27473958 -7 10 C-5.02 12.64 -3.04 15.28 -1 18 C-1.99 18.33 -2.98 18.66 -4 19 C-4 18.34 -4 17.68 -4 17 C-4.66 17 -5.32 17 -6 17 C-6 16.34 -6 15.68 -6 15 C-6.99 14.67 -7.98 14.34 -9 14 C-9.33 13.01 -9.66 12.02 -10 11 C-8.671875 9.0625 -8.671875 9.0625 -6.75 7 C-6.12609375 6.319375 -5.5021875 5.63875 -4.859375 4.9375 C-3.25931787 3.27021358 -1.64407493 1.6237777 0 0 Z " fill="#90E9D4" transform="translate(630,423)"/>
<path d="M0 0 C2.10288089 3.15432133 2.93852446 5.75105616 4 9.375 C5.16712114 13.34138825 6.40012399 17.18600987 8 21 C7.01 21 6.02 21 5 21 C-0.74031891 7.55125285 -0.74031891 7.55125285 0 0 Z " fill="#028B8F" transform="translate(369,820)"/>
<path d="M0 0 C1.12864571 2.82503443 0.99492545 4.01633704 0.07421875 6.98046875 C-0.38339844 8.03878906 -0.84101562 9.09710938 -1.3125 10.1875 C-1.76238281 11.25355469 -2.21226562 12.31960938 -2.67578125 13.41796875 C-4 16 -4 16 -6 17 C-5.36843005 11.94744036 -3.86540627 7.70406799 -2 3 C-1.34 3 -0.68 3 0 3 C0 2.01 0 1.02 0 0 Z " fill="#6DF7E3" transform="translate(945,277)"/>
<path d="M0 0 C3.21043882 1.38188453 5.04936365 2.92421903 7.25 5.625 C8.03117188 6.57246094 8.03117188 6.57246094 8.828125 7.5390625 C9.40820312 8.26222656 9.40820312 8.26222656 10 9 C8.35 8.67 6.7 8.34 5 8 C5 7.34 5 6.68 5 6 C4.360625 5.7525 3.72125 5.505 3.0625 5.25 C1 4 1 4 0.25 1.875 C0.1675 1.25625 0.085 0.6375 0 0 Z " fill="#75F2E1" transform="translate(628,441)"/>
<path d="M0 0 C3.19291789 0.83015865 5.43889383 1.91642505 8.125 3.8125 C8.125 4.1425 8.125 4.4725 8.125 4.8125 C3.25603697 4.21630045 -1.20290951 3.24273178 -5.875 1.8125 C-2.875 -0.1875 -2.875 -0.1875 0 0 Z " fill="#FDF49E" transform="translate(558.875,376.1875)"/>
<path d="M0 0 C7.26 0 14.52 0 22 0 C22 0.99 22 1.98 22 3 C21.34 3 20.68 3 20 3 C20 2.34 20 1.68 20 1 C13.4 1 6.8 1 0 1 C0 0.67 0 0.34 0 0 Z " fill="#42958F" transform="translate(512,375)"/>
<path d="M0 0 C0.33 0.99 0.66 1.98 1 3 C-0.11878383 4.17262904 -1.24523051 5.33795138 -2.375 6.5 C-3.00148438 7.1496875 -3.62796875 7.799375 -4.2734375 8.46875 C-6 10 -6 10 -8 10 C-6.34908222 5.70761377 -3.26245434 3.1206085 0 0 Z " fill="#66FCE9" transform="translate(821,229)"/>
<path d="M0 0 C1.12894876 0.93274109 2.25300876 1.87140122 3.375 2.8125 C4.00148438 3.33457031 4.62796875 3.85664063 5.2734375 4.39453125 C7 6 7 6 9 9 C4.74822077 8.52758009 2.70030797 6.15035929 0 3 C0 2.01 0 1.02 0 0 Z " fill="#7AFDDC" transform="translate(927,238)"/>
<path d="M0 0 C4.55737263 0.43820891 7.57653445 0.85041169 11 4 C9.54119891 3.85892253 8.08296449 3.71197585 6.625 3.5625 C5.40683594 3.44068359 5.40683594 3.44068359 4.1640625 3.31640625 C2 3 2 3 0 2 C0 1.34 0 0.68 0 0 Z " fill="#039396" transform="translate(419,883)"/>
<path d="M0 0 C0.99 0.33 1.98 0.66 3 1 C0.69 3.31 -1.62 5.62 -4 8 C-4.33 7.01 -4.66 6.02 -5 5 C-3.35 3.35 -1.7 1.7 0 0 Z " fill="#75F3E5" transform="translate(918,313)"/>
<path d="M0 0 C-1.28519565 2.86697492 -2.57129254 4.97607712 -5 7 C-5.66 7 -6.32 7 -7 7 C-3.86206897 0 -3.86206897 0 0 0 Z " fill="#7EF1DC" transform="translate(866,367)"/>
<path d="M0 0 C0.33 0.99 0.66 1.98 1 3 C-0.9375 5.6875 -0.9375 5.6875 -3 8 C-3.99 7.67 -4.98 7.34 -6 7 C-4.02 4.69 -2.04 2.38 0 0 Z " fill="#8BFDEA" transform="translate(938,292)"/>
<path d="M0 0 C0.8125 1.6875 0.8125 1.6875 1 4 C-1.4375 6.75 -1.4375 6.75 -4 9 C-4 5.00095031 -2.27413033 3.19799578 0 0 Z " fill="#029296" transform="translate(516,848)"/>
<path d="M0 0 C2.04119788 1.61594832 4.04072937 3.2856382 6 5 C6 5.66 6 6.32 6 7 C2.63279613 5.60667426 1.0140476 4.0210714 -1 1 C-0.67 0.67 -0.34 0.34 0 0 Z " fill="#6FFDED" transform="translate(653,466)"/>
<path d="M0 0 C3.39914975 1.13304992 4.05254451 2.12518475 6 5 C5.67 5.66 5.34 6.32 5 7 C3.02 5.35 1.04 3.7 -1 2 C-0.67 1.34 -0.34 0.68 0 0 Z " fill="#FEF8A6" transform="translate(692,299)"/>
<path d="M0 0 C2 1.8125 2 1.8125 4 4 C4 4.99 4 5.98 4 7 C3.01 6.67 2.02 6.34 1 6 C-0.1875 3.4375 -0.1875 3.4375 -1 1 C-0.67 0.67 -0.34 0.34 0 0 Z " fill="#FFFBB1" transform="translate(105,329)"/>
<path d="M0 0 C0.99 0.33 1.98 0.66 3 1 C1.37660195 2.70884005 -0.29319053 4.37446717 -2 6 C-2.66 6 -3.32 6 -4 6 C-2.84826645 3.53199953 -1.95216435 1.95216435 0 0 Z " fill="#7AF0DB" transform="translate(904,327)"/>
<path d="" fill="#0000FF" transform="translate(0,0)"/>
<path d="" fill="#FFFFFF" transform="translate(0,0)"/>
<path d="" fill="#FFFFFF" transform="translate(0,0)"/>
</svg>
